<?xml version="1.0" encoding="utf-8"?>
<!-- Generator: Adobe Illustrator 19.0.0, SVG Export Plug-In . SVG Version: 6.00 Build 0)  -->
<svg version="1.1" xmlns="http://www.w3.org/2000/svg" xmlns:xlink="http://www.w3.org/1999/xlink" x="0px" y="0px" width="431.6px"
	 height="431.5px" viewBox="0 0 431.6 431.5" style="enable-background:new 0 0 431.6 431.5;" xml:space="preserve">
<style type="text/css">
	.st0{display:none;}
	.st1{display:inline;}
	.st2{fill:none;}
	.st3{fill:#FFFFFF;}
	.st4{fill:#41B6E6;}
	.st5{fill:#333333;}
</style>
<g id="Guides" class="st0">
	<g class="st1">
		<rect x="-0.6" y="-0.6" class="st2" width="433.4" height="433.4"/>
	</g>
</g>
<g id="grey_symbol__x23_333333_x2F_blue_border_x23_41B6E6">
	<g>
		<path class="st3" d="M215.8,416.9c-110.9,0-201.1-90.2-201.1-201.1c0-110.9,90.2-201.1,201.1-201.1
			c110.9,0,201.1,90.2,201.1,201.1C416.9,326.7,326.7,416.9,215.8,416.9z"/>
		<path class="st4" d="M215.8,29.3c102.8,0,186.5,83.7,186.5,186.5c0,102.8-83.7,186.5-186.5,186.5c-102.8,0-186.5-83.7-186.5-186.5
			C29.3,112.9,112.9,29.3,215.8,29.3 M215.8,0C96.8,0,0,96.8,0,215.8c0,119,96.8,215.8,215.8,215.8c119,0,215.8-96.8,215.8-215.8
			C431.6,96.8,334.8,0,215.8,0L215.8,0z"/>
	</g>
	<g>
		<path class="st5" d="M315.1,152l-73.5-73.5l-0.5-0.6h-5.9h-91.8c-17.7,0-32.2,13.5-32.2,30.2v202.1c0,16.6,14.4,30.2,32.2,30.2
			h140c17.8,0,32.2-13.5,32.2-30.2V158.4v-5.9L315.1,152L315.1,152z M306,310.2c0,11.3-10.1,20.5-22.6,20.5h-140
			c-12.4,0-22.5-9.2-22.5-20.5V108.1c0-11.3,10.1-20.5,22.5-20.5h88.5v38.1v3.8c0,17.8,14.5,32.2,32.2,32.2H306V310.2L306,310.2z"/>
		<path class="st5" d="M151.4,121.4h62c3.6,0,6.4,2.9,6.4,6.4c0,3.6-2.9,6.4-6.4,6.4h-62c-3.6,0-6.4-2.9-6.4-6.4
			C145,124.3,147.9,121.4,151.4,121.4"/>
		<path class="st5" d="M151.4,153.6h62c3.6,0,6.4,2.9,6.4,6.4c0,3.6-2.9,6.4-6.4,6.4h-62c-3.6,0-6.4-2.9-6.4-6.4
			C145,156.5,147.9,153.6,151.4,153.6"/>
		<path class="st5" d="M271.4,295.3H151.4c-3.6,0-6.4-2.9-6.4-6.4c0-3.5,2.9-6.4,6.4-6.4h119.9c3.5,0,6.4,2.9,6.4,6.4
			C277.8,292.4,274.9,295.3,271.4,295.3"/>
		<path class="st5" d="M271.4,263.1H151.4c-3.6,0-6.4-2.9-6.4-6.4c0-3.6,2.9-6.4,6.4-6.4h119.9c3.5,0,6.4,2.9,6.4,6.4
			C277.8,260.2,274.9,263.1,271.4,263.1"/>
		<path class="st5" d="M271.4,230.9H151.4c-3.6,0-6.4-2.9-6.4-6.4c0-3.6,2.9-6.4,6.4-6.4h119.9c3.5,0,6.4,2.9,6.4,6.4
			C277.8,228,274.9,230.9,271.4,230.9"/>
		<path class="st5" d="M271.4,198.7H151.4c-3.6,0-6.4-2.9-6.4-6.4c0-3.6,2.9-6.4,6.4-6.4h119.9c3.5,0,6.4,2.9,6.4,6.4
			C277.8,195.8,274.9,198.7,271.4,198.7"/>
	</g>
</g>
</svg>
